<svg version="1.1" xmlns="http://www.w3.org/2000/svg" xmlns:xlink="http://www.w3.org/1999/xlink" x="0px" y="0px"
	 width="52px" height="33px" viewBox="-164.5 181.5 52 33" enable-background="new -164.5 181.5 52 33" xml:space="preserve">
<path fill="#15E6CD" d="M-114.5,181.5h-48c-1.104,0-2,0.896-2,2v29c0,1.104,0.896,2,2,2h48c1.104,0,2-0.896,2-2v-29
	C-112.5,182.396-113.396,181.5-114.5,181.5z M-113.5,212.5c0,0.551-0.448,1-1,1h-48c-0.552,0-1-0.449-1-1v-29c0-0.552,0.448-1,1-1
	h48c0.552,0,1,0.448,1,1V212.5z M-142.459,192.501h3.233l-2.022,12.013h-3.232L-142.459,192.501z M-143.765,192.51l-5.09,11.991
	l-3.419,0.005l-2.895-10.018c2.082,1.349,3.854,3.49,4.478,4.979l0.337,1.236l3.165-8.19L-143.765,192.51z M-158.379,192.638
	l0.042-0.138h5.012c0.675,0.025,1.22,0.141,1.408,0.872l1.089,5.311C-151.9,195.905-154.479,193.594-158.379,192.638z
	 M-129.995,200.587c-0.025,2.497-2.231,4.106-5.629,4.106c-1.448-0.015-2.843-0.306-3.601-0.64l0.455-2.688l0.415,0.19
	c1.063,0.447,1.75,0.63,3.044,0.63c0.929,0,1.924-0.37,1.933-1.172c0.006-0.528-0.417-0.904-1.674-1.491
	c-1.228-0.574-2.852-1.538-2.832-3.264c0.018-2.337,2.269-3.965,5.463-3.965c1.251,0,2.255,0.26,2.895,0.503l-0.437,2.605
	l-0.292-0.141c-0.594-0.242-1.36-0.476-2.419-0.459c-1.265,0-1.853,0.535-1.853,1.033c-0.006,0.564,0.686,0.935,1.816,1.488
	C-130.844,198.18-129.982,199.223-129.995,200.587z M-123.733,192.513c-0.773,0-1.352,0.213-1.693,0.997l-4.798,11.009h3.395
	c0,0,0.553-1.479,0.678-1.804c0.372,0,3.669,0.006,4.14,0.006c0.096,0.418,0.393,1.798,0.393,1.798h3l-2.616-12.006H-123.733z
	 M-125.221,200.257c0.267-0.69,1.287-3.358,1.287-3.358c-0.016,0.032,0.265-0.695,0.431-1.148l0.219,1.037
	c0,0,0.618,2.869,0.748,3.47H-125.221z"/>
</svg>
