<svg id="Слой_1" data-name="Слой 1" xmlns="http://www.w3.org/2000/svg" viewBox="0 0 74 70">
  <defs>
    <style>
      .cls-1 {
        fill: #01211d;
      }

      .cls-2 {
        fill: #09ccb4;
      }
    </style>
  </defs>
  <title>Монтажная область 1</title>
  <path class="cls-1" d="M5.56,25.7l-.1,0-.28-.08-.43-.15-.55-.18a3.92,3.92,0,0,0-.64-.16c-.22,0-.46,0-.52.07a.38.38,0,0,0,0,.09l0,.16a1,1,0,0,0,0,.33,1.26,1.26,0,0,0,.27.63,2.68,2.68,0,0,0,.55.54,4.62,4.62,0,0,0,.65.43,6.4,6.4,0,0,0,.66.34c.21.11.43.19.62.27l.54.2.42.14.28.09.1,0h-.4l-.45-.05c-.18,0-.37-.06-.58-.1s-.44-.11-.68-.19a6.83,6.83,0,0,1-.74-.29,5.07,5.07,0,0,1-.74-.43,3.22,3.22,0,0,1-.67-.63,1.81,1.81,0,0,1-.36-.92,1.54,1.54,0,0,1,.06-.49l.08-.23a.83.83,0,0,1,.17-.24,1,1,0,0,1,.94-.12,4.14,4.14,0,0,1,.67.26c.2.09.37.2.52.29l.39.23.25.15Zm1.57,2.9A3.74,3.74,0,0,0,7.5,29a7.47,7.47,0,0,0,1.78,1.27,18.55,18.55,0,0,0,3.17,1.26,35.64,35.64,0,0,0,4.31,1,11.92,11.92,0,0,0,2.55.23,8.86,8.86,0,0,1,2.6.16,2.28,2.28,0,0,1,.62.22,5.46,5.46,0,0,1,.6.28,13.11,13.11,0,0,1,1.14.81c.75.58,1.52,1.24,2.36,1.84.41.3.88.55,1.33.83s1,.44,1.47.66,1,.28,1.59.39a3.82,3.82,0,0,0,1.74-.11,3.73,3.73,0,0,0,1.47-1c.39-.42.71-.84,1.05-1.25a6.91,6.91,0,0,1,2.33-1.93l.7-.29.74-.21,1.57-.38,3.11-.76c2.05-.5,4.08-1,6.06-1.31l1.47-.27,1.45-.2c1-.12,1.89-.28,2.81-.36,1.84-.13,3.57-.35,5.18-.38l4.4-.15,3.39,0,2.19,0h.77l-.77-.05-2.18-.14-3.4-.19-4.42,0c-1.62,0-3.37.16-5.22.24-.93.07-1.87.21-2.84.31l-1.47.17-1.49.25c-2,.32-4.05.77-6.12,1.25l-3.11.75-1.57.37-.82.23-.79.32a7.73,7.73,0,0,0-2.6,2.15c-.69.84-1.29,1.72-2.15,2a3.07,3.07,0,0,1-1.38.1c-.49-.1-1-.23-1.45-.34s-.92-.38-1.36-.59-.86-.49-1.26-.77c-.82-.56-1.57-1.18-2.37-1.77a13.66,13.66,0,0,0-1.23-.83,6,6,0,0,0-.69-.31,2.72,2.72,0,0,0-.7-.23,9.36,9.36,0,0,0-2.76-.11,11.41,11.41,0,0,1-2.46-.15,41.17,41.17,0,0,1-4.3-.85,18.36,18.36,0,0,1-3.18-1.11A7.33,7.33,0,0,1,7.53,29a3.69,3.69,0,0,1-.39-.42L7,28.43Zm22.21,2-.11.21a2.52,2.52,0,0,0-.15.35c0,.14-.06.31-.09.5a1.82,1.82,0,0,0,.14.61,1.93,1.93,0,0,0,.18.3l.27.26a1.92,1.92,0,0,0,.71.29,1.28,1.28,0,0,0,.39,0,1.42,1.42,0,0,0,.38,0,2.16,2.16,0,0,0,.71-.27,4.93,4.93,0,0,0,.55-.43L32.8,32a5.12,5.12,0,0,1,.42-.34l.37-.27.31-.18.2-.12.07,0-.08,0-.23.05-.36.1-.45.19a5.22,5.22,0,0,0-.5.28L32,32a4.48,4.48,0,0,1-.52.35,1.64,1.64,0,0,1-.56.19,1,1,0,0,1-.29,0,.87.87,0,0,1-.29,0,1.41,1.41,0,0,1-.52-.16l-.21-.16a1.46,1.46,0,0,1-.15-.2c-.12-.12-.12-.3-.19-.44s0-.3,0-.44a2.44,2.44,0,0,1,0-.35l0-.23v-.08ZM68.47.12C68,.09,67.22,0,66.27,0s-2.1,0-3.42,0S60,.09,58.41.29L57.16.42,55.89.67c-.87.16-1.76.34-2.66.57-1.82.43-3.71,1-5.66,1.58l-1.47.46c-.49.15-1,.39-1.47.58l-1.48.61-1.42.75c-1.91,1-3.7,2.24-5.57,3.3a31.24,31.24,0,0,1-5.81,2.62l-1.5.47a10.59,10.59,0,0,1-1.5.41l-3,.62c-2,.34-3.94.51-5.77.76a22.58,22.58,0,0,1-2.69.19l-2.52.1-4.44.15-3.4.38-2.19.26-.77.09.78,0,2.2-.14,3.4-.24h4.43l2.54,0A22.69,22.69,0,0,0,18.63,14c1.86-.21,3.82-.35,5.84-.66l3.06-.59a11.25,11.25,0,0,0,1.54-.4l1.54-.46a32,32,0,0,0,6-2.66c1.89-1.09,3.68-2.32,5.54-3.32l1.38-.75,1.43-.61c.48-.19.93-.43,1.42-.58l1.46-.47c1.92-.62,3.79-1.21,5.59-1.67.89-.26,1.77-.46,2.62-.64L57.25.92,58.48.76C60.07.52,61.56.45,62.87.32L66.28.16c.95,0,1.69,0,2.2,0h.78Zm.77.38a2.16,2.16,0,0,1-.32.88,2.94,2.94,0,0,1-1.06,1,10.73,10.73,0,0,1-1.8.61c-.69.15-1.43.32-2.24.44s-1.65.26-2.52.39-1.79.28-2.71.44-1.86.35-2.78.6a26.22,26.22,0,0,0-2.72.85l-1.29.55c-.42.2-.81.44-1.21.65a7.74,7.74,0,0,0-1.1.74,7,7,0,0,0-1,.8l-.85.85c-.26.29-.46.61-.68.9a6.24,6.24,0,0,0-.57.86l-.4.84c-.12.26-.25.5-.34.74l-.2.66-.27.93-.09.33.12-.32.34-.9.24-.64c.11-.22.25-.45.39-.7l.45-.79a6.64,6.64,0,0,1,.6-.81c.22-.27.42-.58.69-.84l.85-.79a6.62,6.62,0,0,1,1-.75,7.38,7.38,0,0,1,1.08-.69c.39-.2.77-.43,1.18-.61l1.26-.52a25.84,25.84,0,0,1,2.67-.82c.9-.25,1.83-.42,2.74-.61s1.81-.34,2.69-.48S63.1,4,63.9,3.8s1.55-.35,2.24-.53A9.43,9.43,0,0,0,68,2.54a3.09,3.09,0,0,0,1-1.1,2.21,2.21,0,0,0,.26-.93,1.94,1.94,0,0,0,0-.34A1.91,1.91,0,0,1,69.24.5Zm2,3.55a3.2,3.2,0,0,1-.37.68,5.12,5.12,0,0,1-.35.42,3.1,3.1,0,0,1-.5.39A3.28,3.28,0,0,1,68.64,6a6,6,0,0,1-1.8-.11c-.64-.11-1.26-.36-2-.53L63.76,5.1C63.39,5,63,5,62.62,5s-.77-.1-1.16-.1H60.3a22.67,22.67,0,0,0-4.53.55c-.36.08-.71.15-1,.24l-1,.32A12.32,12.32,0,0,0,52,6.64l-1.43.68c-.4.24-.75.48-1,.66l-.65.43-.23.15.25-.13.69-.36c.3-.16.65-.36,1.07-.57l1.46-.57a12.2,12.2,0,0,1,1.76-.56l1-.28c.33-.08.68-.13,1-.2A16.45,16.45,0,0,1,58,5.55a16.38,16.38,0,0,1,2.26-.15h1.14c.38,0,.75.06,1.12.09s.74.06,1.1.11l1,.24c.68.13,1.38.38,2,.47a6.3,6.3,0,0,0,1.91,0,3.31,3.31,0,0,0,1.5-.61,3.23,3.23,0,0,0,.5-.45A5.48,5.48,0,0,0,71,4.79a3.33,3.33,0,0,0,.31-.73l.08-.26Zm-5.48-1,.18.05.28.07.36.08.43.08.48.08.51.07c.17,0,.35,0,.52.06l.52.06.51,0a3.19,3.19,0,0,1,.48.05l.42.05.37,0,.29,0h.25l-.06,0-.17-.08-.26-.11-.35-.14-.42-.15a3.36,3.36,0,0,0-.48-.12l-.52-.1L68.62,3c-.18,0-.36,0-.54,0l-.52,0h-.49l-.43,0-.37,0L66,3l-.18,0h-.07Zm3.85,2.75a2.57,2.57,0,0,1-.35.59,2.37,2.37,0,0,1-.82.64,3.48,3.48,0,0,1-1.32.26,7.14,7.14,0,0,1-1.61-.17l-1.81-.38c-.63-.13-1.29-.25-2-.37s-1.36-.2-2-.29S58.34,6,57.66,6s-1.36.07-2,.1a18,18,0,0,0-1.86.31,10.6,10.6,0,0,0-1.62.46,9,9,0,0,0-1.32.5l-1,.48-.62.32L49,8.24l.23-.09.65-.24,1-.39a11.41,11.41,0,0,1,1.34-.39,10.3,10.3,0,0,1,1.61-.36,17.31,17.31,0,0,1,1.82-.23c.64,0,1.29-.1,2,0s1.35,0,2,.13,1.36.14,2,.26,1.32.2,2,.32l1.84.32a7.55,7.55,0,0,0,1.7.08,3.43,3.43,0,0,0,1.39-.4,2.5,2.5,0,0,0,.81-.76,2.68,2.68,0,0,0,.3-.64l.08-.24Zm-3.43,2-.11.22-.22.24a1.81,1.81,0,0,1-.77.41A3.92,3.92,0,0,1,64,8.78a7.85,7.85,0,0,1-1.36-.23c-.48-.12-1-.27-1.49-.44s-1-.37-1.62-.5-1.13-.28-1.71-.37S56.65,7,56.07,7a15.71,15.71,0,0,0-1.7-.08c-.55,0-1.09.07-1.59.12s-1,.18-1.4.29l-1.15.36c-.34.12-.62.26-.85.35l-.54.24-.19.09.2-.06.57-.17c.24-.07.53-.18.88-.26l1.15-.25c.42-.08.89-.12,1.38-.19s1-.06,1.55,0A15.45,15.45,0,0,1,56,7.5c.56.05,1.13.15,1.69.26s1.13.23,1.69.35,1.07.3,1.6.45,1,.28,1.55.38A8.28,8.28,0,0,0,64,9.09a3.63,3.63,0,0,0,1.21-.18A2,2,0,0,0,66,8.38l.2-.29.09-.24.07-.2ZM45.29,14.52l.53,0,.83-.05a6.37,6.37,0,0,0,1.07-.12L49,14.09c.45-.08.9-.21,1.38-.32l1.45-.39,1.48-.43,1.49-.46q.72-.23,1.42-.4a9.11,9.11,0,0,1,1.33-.23,5.36,5.36,0,0,1,1.2,0,5,5,0,0,1,1,.21,3.63,3.63,0,0,1,.72.34,3.41,3.41,0,0,1,.43.29l.15.11-.12-.14a3.34,3.34,0,0,0-.37-.39,3.69,3.69,0,0,0-.69-.49,3.94,3.94,0,0,0-1-.4,5.93,5.93,0,0,0-1.31-.14,9.82,9.82,0,0,0-1.45.14c-.49.09-1,.21-1.49.35l-1.49.43-1.49.46-1.43.46c-.46.15-.9.31-1.33.43l-1.2.37c-.37.13-.71.21-1,.28l-.79.2-.51.14-.18.05ZM61,13a2.34,2.34,0,0,1-.07.48,2.54,2.54,0,0,1-1,1.5,6.86,6.86,0,0,1-2.57,1.16c-1.07.29-2.3.51-3.65.74a17.29,17.29,0,0,0-4.31,1.32c-1.46.63-2.93,1.45-4.48,2.1A24.77,24.77,0,0,1,40,22l-1.3.24-1.36.21c-.92.12-1.79.32-2.7.38l-1.34.14L32,23l-2.73.14A45.74,45.74,0,0,0,24,24c-1.69.35-3.31.72-4.85,1s-3,.57-4.35.73-2.6.27-3.71.32-2.08,0-2.88,0-1.42-.12-1.85-.17l-.66-.07.65.13c.42.08,1,.23,1.84.32s1.77.19,2.9.24a33.42,33.42,0,0,0,3.78-.1c1.38-.1,2.87-.31,4.43-.55s3.2-.58,4.88-.88a44.89,44.89,0,0,1,5.19-.73L32,24.07,33.43,24l1.39-.13c.93-.07,1.85-.29,2.74-.41l1.34-.21L40.27,23a25.72,25.72,0,0,0,5.06-1.86c1.6-.74,3-1.58,4.43-2.24a16.51,16.51,0,0,1,4.1-1.44,31.84,31.84,0,0,0,3.65-1,7.12,7.12,0,0,0,2.58-1.38A2.67,2.67,0,0,0,61,13.46,2.44,2.44,0,0,0,61,13c0-.11,0-.17,0-.17ZM74,57.52H0v1H74ZM3.23,66.85c0-3.68,0-2.35,0-4.33,0-.4,0-.51.11-.51s.26.22.36.33,1.67,1.82,3.24,3.5c1,1.08,2.12,2.32,2.45,2.66l-.11-5.18c0-.66-.08-.89-.4-1a2.11,2.11,0,0,0-.44-.05c-.11,0-.14,0-.14-.07s.08-.07.2-.07c.46,0,.95,0,1.06,0s.45,0,.87,0c.11,0,.18,0,.18.07s0,.06-.11.07l-.26,0c-.29.06-.36.21-.36.92l0,6c0,.67,0,.73-.09.73s-.2-.11-.74-.65c-.11-.1-1.58-1.6-2.66-2.76S4,64,3.71,63.59l.13,4.88c0,.84.12,1.1.4,1.18a2.29,2.29,0,0,0,.51.06c.05,0,.08,0,.08.06s-.06.08-.18.08c-.58,0-1,0-1.08,0s-.52,0-1,0c-.1,0-.16,0-.16-.08s0-.06.08-.06a1.5,1.5,0,0,0,.42-.06c.25-.07.31-.37.31-1.3V66.85Zm10.71,0c-.05,0-.08,0-.1.08l-.61,1.8a2.15,2.15,0,0,0-.14.68c0,.2.19.3.37.3h.09c.1,0,.13,0,.13.06s-.09.08-.18.08l-.76,0c-.11,0-.67,0-1.15,0-.13,0-.19,0-.19-.08s.05-.06.14-.06l.24,0c.47-.06.67-.45.86-1l2.31-6.33c.12-.34.16-.4.23-.4s.1.05.22.37,1.75,4.6,2.38,6.15c.37.91.66,1.07.88,1.13a1.38,1.38,0,0,0,.4.06c.06,0,.11,0,.11.06s-.09.08-.2.08-.9,0-1.6,0c-.19,0-.31,0-.31-.07s0-.06.07-.07.12-.11.06-.27l-.95-2.51a.09.09,0,0,0-.09-.06H13.94ZM16,66.48c.05,0,.05,0,0-.07l-1-2.75c-.05-.15-.1-.15-.15,0L14,66.41c0,.05,0,.07,0,.07Zm4.86-1.38c0-1.59,0-1.87,0-2.2s-.12-.52-.35-.57a1.32,1.32,0,0,0-.32,0s-.08,0-.08-.06.05-.08.16-.08c.34,0,1,0,1,0l1,0c.11,0,.16,0,.16.08s0,.06-.08.06l-.26,0c-.27.05-.36.22-.38.58s0,.61,0,2.2v1.8c0,1,0,1.78.05,2.21s.09.52.4.56l.42,0c.09,0,.12,0,.12.06s0,.08-.15.08c-.56,0-1.21,0-1.26,0l-1,0c-.11,0-.16,0-.16-.08s0-.06.11-.06l.26,0c.2,0,.26-.27.31-.57s.05-1.23.05-2.21v-1.8Zm5.6,1.82c0,1.5,0,2.15.22,2.34s.43.23,1.22.23c.54,0,1,0,1.23-.31a1.43,1.43,0,0,0,.26-.61c0-.08,0-.13.09-.13s.06,0,.06.15a6.45,6.45,0,0,1-.15,1c-.07.24-.1.27-.64.27-.88,0-1.74-.06-2.73-.06-.32,0-.62,0-1,0-.11,0-.16,0-.16-.08s0-.06.08-.06a1.62,1.62,0,0,0,.31,0c.2,0,.25-.26.29-.56s.05-1.23.05-2.21v-1.8c0-1.59,0-1.87,0-2.2s-.1-.51-.44-.58a1.85,1.85,0,0,0-.35,0s-.08,0-.08-.06.05-.08.16-.08c.46,0,1.1,0,1.15,0l1.1,0c.11,0,.16,0,.16.08s0,.06-.08.06l-.34,0c-.29.05-.38.22-.4.58s0,.61,0,2.2v1.82Zm4.78,2.8c-.14-.07-.15-.11-.15-.39,0-.51,0-.92.05-1.08s0-.16.08-.16.07,0,.07.11a1.77,1.77,0,0,0,0,.38,1.39,1.39,0,0,0,1.51,1,1.36,1.36,0,0,0,1.46-1.35c0-.7-.3-1.11-1.17-1.84l-.46-.38c-1.08-.89-1.33-1.52-1.33-2.21A1.87,1.87,0,0,1,33.44,62a4,4,0,0,1,.95.1,1.68,1.68,0,0,0,.36,0c.08,0,.1,0,.1.07s0,.39,0,1.08c0,.16,0,.24-.07.24s-.07-.05-.08-.13a1.75,1.75,0,0,0-.13-.51c-.06-.11-.34-.54-1.27-.54A1.16,1.16,0,0,0,32,63.55c0,.58.26.95,1.24,1.71l.29.23c1.2.95,1.49,1.58,1.49,2.4a2.11,2.11,0,0,1-.87,1.69A2.68,2.68,0,0,1,32.6,70,3.11,3.11,0,0,1,31.24,69.72Zm10,0c-.14-.07-.15-.11-.15-.39,0-.51,0-.92.05-1.08s0-.16.08-.16.07,0,.07.11a1.83,1.83,0,0,0,0,.38,1.39,1.39,0,0,0,1.51,1,1.36,1.36,0,0,0,1.46-1.35c0-.7-.3-1.11-1.17-1.84l-.46-.38c-1.08-.89-1.32-1.52-1.32-2.21A1.87,1.87,0,0,1,43.44,62a4,4,0,0,1,.95.1,1.67,1.67,0,0,0,.36,0c.08,0,.1,0,.1.07s0,.39,0,1.08c0,.16,0,.24-.07.24s-.07-.05-.08-.13a1.82,1.82,0,0,0-.13-.51c-.06-.11-.34-.54-1.27-.54A1.16,1.16,0,0,0,42,63.55c0,.58.26.95,1.24,1.71l.29.23c1.2.95,1.49,1.58,1.49,2.4a2.11,2.11,0,0,1-.87,1.69,2.68,2.68,0,0,1-1.54.43A3.11,3.11,0,0,1,41.24,69.72Zm12-4.34s.06,0,.06-.06v-.21c0-1.59,0-1.87,0-2.2s-.1-.51-.44-.58a1.84,1.84,0,0,0-.35,0s-.08,0-.08-.06.05-.08.16-.08c.46,0,1.1,0,1.15,0l1,0c.11,0,.16,0,.16.08s0,.06-.08.06l-.26,0c-.27.05-.36.22-.38.58s0,.61,0,2.2v1.8c0,1,0,1.78.05,2.21s.09.52.4.56l.46,0c.06,0,.08,0,.08.06s-.05.08-.16.08c-.56,0-1.2,0-1.25,0l-1,0c-.11,0-.16,0-.16-.08s0-.06.08-.06a1.62,1.62,0,0,0,.31,0c.2,0,.26-.26.3-.56s.05-1.23.05-2.21V65.83a.06.06,0,0,0-.06-.06H48.87s-.06,0-.06.06V66.9c0,1,0,1.78.05,2.21s.09.52.4.56l.46,0c.06,0,.08,0,.08.06s-.05.08-.16.08c-.56,0-1.2,0-1.25,0l-1,0c-.11,0-.16,0-.16-.08s0-.06.08-.06a1.59,1.59,0,0,0,.3,0c.21,0,.26-.26.3-.56S48,67.88,48,66.9v-1.8c0-1.59,0-1.87,0-2.2s-.1-.51-.44-.58a1.84,1.84,0,0,0-.35,0s-.08,0-.08-.06.05-.08.16-.08c.46,0,1.1,0,1.15,0l1,0c.11,0,.16,0,.16.08s0,.06-.08.06l-.26,0c-.27.05-.36.22-.38.58s0,.61,0,2.2v.21c0,.05,0,.06.06.06Zm3.62.61a4,4,0,0,1,4-4,3.72,3.72,0,0,1,4,3.82A4,4,0,0,1,60.77,70,3.82,3.82,0,0,1,56.81,66Zm7,.12c0-2.45-1.49-3.76-3.1-3.76s-3,1.12-3,3.35,1.43,3.9,3.26,3.9C62,69.61,63.86,69.08,63.86,66.12Zm3.7-1c0-1.59,0-1.87,0-2.2s-.1-.51-.44-.58a1.85,1.85,0,0,0-.35,0s-.08,0-.08-.06,0-.08.16-.08c.46,0,1.07,0,1.15,0s.82,0,1.29,0a2.48,2.48,0,0,1,1.9.58,1.86,1.86,0,0,1,.51,1.34,2.34,2.34,0,0,1-2.51,2.3H69c-.05,0-.11,0-.11-.07s.06-.09.27-.09a1.68,1.68,0,0,0,1.76-1.74A2.1,2.1,0,0,0,70.31,63a1.77,1.77,0,0,0-1.4-.51,1.24,1.24,0,0,0-.44.06c-.06,0-.08.09-.08.19V66.9c0,1,0,1.78.05,2.21s.09.52.4.56l.46,0c.06,0,.08,0,.08.06s-.05.08-.16.08c-.56,0-1.2,0-1.25,0l-1,0c-.11,0-.16,0-.16-.08s0-.06.08-.06a1.63,1.63,0,0,0,.31,0c.2,0,.25-.26.3-.56s.05-1.23.05-2.21V65.11Z"/>
  <path class="cls-2" d="M5,35.65a.59.59,0,0,0-.11,1.17c1.39.27,2.34,1.39,2.89,3.43A18.46,18.46,0,0,0,2.55,51.94c0,2.37,1.09,3.54,2.48,3.54,2.81,0,4.55-4.88,4.55-10a22.85,22.85,0,0,0-.44-4.82,4.64,4.64,0,0,1,3.11-1.44,3,3,0,0,1,2.21.93,5.14,5.14,0,0,1,1.2,2.4c-2.21,2.94-3.76,7.27-3.76,10.05a3.41,3.41,0,0,0,.65,2.4,1.76,1.76,0,0,0,1.12.41c2.45,0,3.73-4.74,3.73-9.07A12.63,12.63,0,0,0,17,42.76c.41-.57,2.24-3.11,4.17-3.11,2.43,0,3.05,3.11,3.05,5.56,0,3.38-1,7.22-2.29,9.07a.76.76,0,0,0-.08.35.57.57,0,0,0,.57.6.63.63,0,0,0,.52-.24c1.44-2.1,2.51-6.16,2.51-9.78,0-2-.33-4.22-1.69-5.64a3.39,3.39,0,0,0-2.53-1c-1.8,0-3.43,1.34-4.66,2.83A4.39,4.39,0,0,0,12.33,38a5.9,5.9,0,0,0-3.51,1.31C8.19,37.47,7.1,36,5.17,35.65H5Zm3.32,9.81c0,4.69-1.53,8.91-3.3,8.91-1.28,0-1.31-2.07-1.31-2.43,0-3,1.88-7.57,4.36-10.46A33.06,33.06,0,0,1,8.35,45.45Zm7.82,1.12c-.05,4.33-1.34,7.71-2.48,7.71-.54,0-.6-1.34-.6-1.72,0-2.23,1.17-5.67,2.91-8.61A17,17,0,0,1,16.18,46.57Zm15.42-.9c-3,0-5,3.95-5,6.78,0,2,1.12,2.86,2.21,2.86A2.93,2.93,0,0,0,31.68,53a.56.56,0,0,0-.57-.6.56.56,0,0,0-.52.35A1.85,1.85,0,0,1,29,54.17c-.71,0-1.17-.71-1.17-1.72,0-2.48,1.55-5.64,3.62-5.64.71,0,1.42.49,1.42,1.8a19.75,19.75,0,0,1-.35,3,21.69,21.69,0,0,0-.3,2.32c0,.54.16,1.31.76,1.31a.62.62,0,0,0,.63-.57.67.67,0,0,0-.11-.33,1.07,1.07,0,0,1-.05-.35,18.4,18.4,0,0,1,.27-2.18,19,19,0,0,0,.35-3.27C34.1,46.68,33.15,45.67,31.6,45.67Zm5.31,5.58a1.89,1.89,0,0,0-1.88,2c0,1.36,1.42,2.26,3,2.26,2.07,0,3.27-1.25,3.27-2.94,0-1.39-.9-2.18-2.23-3-1.09-.65-1.34-1-1.34-1.5a1.23,1.23,0,0,1,1.36-1.25,1.28,1.28,0,0,1,1.17.87.55.55,0,0,0,.49.35.62.62,0,0,0,.63-.63,2.08,2.08,0,0,0-2.26-1.63,2.38,2.38,0,0,0-2.59,2.29,3.05,3.05,0,0,0,2,2.56C39.72,51.29,40,52,40,52.7a1.84,1.84,0,0,1-2,1.8c-1,0-1.77-.65-1.77-1.31,0-.38.14-.79.65-.79a2,2,0,0,1,.44.08.48.48,0,0,0,.54-.52C37.89,51.42,37.4,51.26,36.91,51.26Zm6.78,4a.54.54,0,0,0,.57-.6C43.88,51.58,46.2,47,48,47c.68,0,1,.71,1,2.78a19.48,19.48,0,0,1-.6,4.44c0,.05,0,.11,0,.16A.63.63,0,0,0,49,55a.61.61,0,0,0,.57-.46,19.36,19.36,0,0,0,.65-4.74c0-1.17,0-4-2.18-4-1.47,0-3.13,1.66-3.95,4.39a47.06,47.06,0,0,1,1-5.53c2.73-.68,5.53-2.73,5.53-4.93a1.7,1.7,0,0,0-1.85-1.82c-2.1,0-3.79,3.08-4.63,5.78a6.08,6.08,0,0,1-1,.08H42.6a.52.52,0,0,0-.57.54c0,.63.57.6,1.06.6a6.22,6.22,0,0,0,.74,0,39.14,39.14,0,0,0-.9,7.63,11.78,11.78,0,0,0,.19,2.23A.59.59,0,0,0,43.69,55.21ZM48.76,39a.62.62,0,0,1,.68.71c0,1.34-1.83,2.92-4,3.65C46.33,40.8,47.78,39,48.76,39Zm7.82,6.68c-3,0-5,3.95-5,6.78,0,2,1.12,2.86,2.21,2.86A2.93,2.93,0,0,0,56.66,53a.56.56,0,0,0-.57-.6.56.56,0,0,0-.52.35A1.84,1.84,0,0,1,54,54.17c-.71,0-1.17-.71-1.17-1.72,0-2.48,1.55-5.64,3.62-5.64.71,0,1.42.49,1.42,1.8a19.88,19.88,0,0,1-.35,3,21.64,21.64,0,0,0-.3,2.32c0,.54.16,1.31.76,1.31a.62.62,0,0,0,.63-.57.68.68,0,0,0-.11-.33,1,1,0,0,1-.05-.35,18.4,18.4,0,0,1,.27-2.18,19,19,0,0,0,.35-3.27C59.08,46.68,58.13,45.67,56.58,45.67Zm7.74-1.77a.58.58,0,0,0-.22-.46c-.9-.71-1.8-1.39-2.45-2-.14-.11-.41-.35-.65-.54a2,2,0,0,0-.33-.08.45.45,0,0,0-.49.46c0,.27.11.52.55.85.73.54,2,1.61,2.7,2.13a.8.8,0,0,0,.49.16C64.13,44.45,64.32,44.23,64.32,43.9Zm2.92,7.36a1.89,1.89,0,0,0-1.88,2c0,1.36,1.42,2.26,3,2.26,2.07,0,3.27-1.25,3.27-2.94,0-1.39-.9-2.18-2.23-3-1.09-.65-1.33-1-1.33-1.5a1.23,1.23,0,0,1,1.36-1.25,1.28,1.28,0,0,1,1.17.87A.55.55,0,0,0,71,48a.62.62,0,0,0,.63-.63,2.08,2.08,0,0,0-2.26-1.63,2.38,2.38,0,0,0-2.59,2.29,3.05,3.05,0,0,0,2,2.56c1.23.65,1.55,1.42,1.55,2.07a1.85,1.85,0,0,1-2,1.8c-1,0-1.77-.65-1.77-1.31,0-.38.14-.79.65-.79a2,2,0,0,1,.44.08.48.48,0,0,0,.54-.52C68.22,51.42,67.73,51.26,67.24,51.26Z"/>
</svg>
